<?xml version="1.0" standalone="no"?>
<!DOCTYPE svg PUBLIC "-//W3C//DTD SVG 20010904//EN"
 "http://www.w3.org/TR/2001/REC-SVG-20010904/DTD/svg10.dtd">
<svg version="1.0" xmlns="http://www.w3.org/2000/svg"
 width="500.000000pt" height="500.000000pt" viewBox="0 0 500.000000 500.000000"
 preserveAspectRatio="xMidYMid meet">
<metadata>
Created by potrace 1.14, written by Peter Selinger 2001-2017
</metadata>
<g transform="translate(0.000000,500.000000) scale(0.100000,-0.100000)"
fill="#000000" stroke="none">
<path d="M2464 4990 c-11 -4 -61 -33 -113 -64 -51 -31 -95 -56 -96 -56 -1 0
-92 -52 -201 -116 -110 -64 -212 -124 -229 -134 -16 -9 -86 -50 -155 -90 -171
-100 -548 -319 -587 -341 -38 -22 -101 -59 -128 -77 -11 -6 -27 -15 -35 -19
-8 -4 -60 -34 -115 -66 -55 -33 -118 -69 -140 -82 -22 -12 -105 -61 -185 -107
l-145 -86 0 -1252 0 -1253 30 -17 c17 -10 107 -62 200 -117 94 -54 177 -102
185 -106 8 -4 27 -15 41 -25 15 -9 80 -48 145 -85 66 -37 126 -72 134 -77 65
-40 222 -130 226 -130 3 0 25 -13 49 -30 24 -16 54 -34 67 -40 13 -6 37 -19
53 -29 17 -10 102 -60 190 -111 88 -51 171 -101 185 -110 14 -9 50 -31 80 -47
30 -17 96 -54 145 -83 50 -29 106 -62 125 -72 19 -11 88 -51 152 -89 64 -38
125 -69 135 -69 16 0 468 257 713 405 48 29 102 59 175 99 11 6 27 16 35 22 8
6 40 25 70 41 30 17 102 58 160 93 58 34 123 73 145 85 22 13 108 62 190 110
83 49 231 135 330 193 99 57 203 118 230 134 28 16 60 34 73 40 12 6 22 21 23
32 6 128 2 2465 -3 2478 -5 10 -36 34 -71 54 -71 42 -427 248 -472 274 -16 10
-53 31 -81 47 -27 17 -70 42 -95 55 -24 14 -134 79 -244 143 -110 65 -220 129
-245 143 -25 14 -62 36 -82 49 -21 12 -40 23 -42 23 -3 0 -41 23 -86 50 -45
28 -84 50 -87 50 -3 0 -17 8 -31 19 -15 10 -52 32 -82 49 -30 16 -159 90 -286
164 -170 100 -236 133 -250 128z m1071 -4306 c-23 -18 -104 -60 -93 -49 9 10
101 64 108 64 3 0 -4 -7 -15 -15z"/>
</g>
</svg>
