<svg xmlns="http://www.w3.org/2000/svg" version="1.1" xmlns:xlink="http://www.w3.org/1999/xlink" xmlns:svgjs="http://svgjs.com/svgjs" width="500px" height="500px"><svg xmlns="http://www.w3.org/2000/svg" version="1.1" width="500px" height="500px" style="shape-rendering:geometricPrecision; text-rendering:geometricPrecision; image-rendering:optimizeQuality; fill-rule:evenodd; clip-rule:evenodd" xmlns:xlink="http://www.w3.org/1999/xlink">
<g><path style="opacity:1" fill="#42c08c" d="M 245.5,-0.5 C 246.833,-0.5 248.167,-0.5 249.5,-0.5C 261.633,7.07044 273.966,14.4038 286.5,21.5C 286.821,23.0481 287.821,23.7148 289.5,23.5C 337.33,50.9142 384.997,78.5808 432.5,106.5C 432.821,108.048 433.821,108.715 435.5,108.5C 444.15,113.472 452.816,118.472 461.5,123.5C 462.833,207.5 462.833,291.5 461.5,375.5C 391.106,417.028 320.439,458.028 249.5,498.5C 247.435,498.483 245.435,498.15 243.5,497.5C 242.508,497.672 241.842,497.338 241.5,496.5C 241.027,495.094 240.027,494.427 238.5,494.5C 236.847,494.34 235.514,493.674 234.5,492.5C 234.027,491.094 233.027,490.427 231.5,490.5C 228.24,489.226 225.24,487.56 222.5,485.5C 222.027,484.094 221.027,483.427 219.5,483.5C 217.847,483.34 216.514,482.674 215.5,481.5C 215.027,480.094 214.027,479.427 212.5,479.5C 211.508,479.672 210.842,479.338 210.5,478.5C 210.027,477.094 209.027,476.427 207.5,476.5C 205.847,476.34 204.514,475.674 203.5,474.5C 203.027,473.094 202.027,472.427 200.5,472.5C 198.847,472.34 197.514,471.674 196.5,470.5C 196.027,469.094 195.027,468.427 193.5,468.5C 192.508,468.672 191.842,468.338 191.5,467.5C 191.027,466.094 190.027,465.427 188.5,465.5C 187.508,465.672 186.842,465.338 186.5,464.5C 186.027,463.094 185.027,462.427 183.5,462.5C 181.847,462.34 180.514,461.674 179.5,460.5C 179.027,459.094 178.027,458.427 176.5,458.5C 175.508,458.672 174.842,458.338 174.5,457.5C 174.027,456.094 173.027,455.427 171.5,455.5C 168.24,454.226 165.24,452.56 162.5,450.5C 162.027,449.094 161.027,448.427 159.5,448.5C 157.847,448.34 156.514,447.674 155.5,446.5C 155.027,445.094 154.027,444.427 152.5,444.5C 151.508,444.672 150.842,444.338 150.5,443.5C 150.027,442.094 149.027,441.427 147.5,441.5C 141.835,439.003 136.502,436.003 131.5,432.5C 131.027,431.094 130.027,430.427 128.5,430.5C 126.847,430.34 125.514,429.674 124.5,428.5C 124.027,427.094 123.027,426.427 121.5,426.5C 120.508,426.672 119.842,426.338 119.5,425.5C 119.027,424.094 118.027,423.427 116.5,423.5C 112.665,421.75 108.999,419.75 105.5,417.5C 105.027,416.094 104.027,415.427 102.5,415.5C 101.508,415.672 100.842,415.338 100.5,414.5C 100.027,413.094 99.0269,412.427 97.5,412.5C 96.5084,412.672 95.8417,412.338 95.5,411.5C 95.0269,410.094 94.0269,409.427 92.5,409.5C 90.847,409.34 89.5137,408.674 88.5,407.5C 88.0269,406.094 87.0269,405.427 85.5,405.5C 83.847,405.34 82.5137,404.674 81.5,403.5C 81.0269,402.094 80.0269,401.427 78.5,401.5C 77.5084,401.672 76.8417,401.338 76.5,400.5C 76.0269,399.094 75.0269,398.427 73.5,398.5C 71.847,398.34 70.5137,397.674 69.5,396.5C 69.0269,395.094 68.0269,394.427 66.5,394.5C 65.5084,394.672 64.8417,394.338 64.5,393.5C 64.0269,392.094 63.0269,391.427 61.5,391.5C 57.6654,389.75 53.9988,387.75 50.5,385.5C 50.0269,384.094 49.0269,383.427 47.5,383.5C 46.5084,383.672 45.8417,383.338 45.5,382.5C 45.0269,381.094 44.0269,380.427 42.5,380.5C 41.5084,380.672 40.8417,380.338 40.5,379.5C 40.0269,378.094 39.0269,377.427 37.5,377.5C 36.5084,377.672 35.8417,377.338 35.5,376.5C 35.2172,375.711 34.7172,375.044 34,374.5C 33.8333,332.833 33.6667,291.167 33.5,249.5C 33.5108,207.023 34.1774,164.69 35.5,122.5C 37.3356,120.412 39.6689,119.079 42.5,118.5C 44.0269,118.573 45.0269,117.906 45.5,116.5C 52.0035,111.745 59.0035,107.745 66.5,104.5C 68.0269,104.573 69.0269,103.906 69.5,102.5C 78.4998,96.6643 87.8331,91.3309 97.5,86.5C 99.0269,86.573 100.027,85.9063 100.5,84.5C 107.329,80.2505 114.329,76.2505 121.5,72.5C 123.027,72.573 124.027,71.9063 124.5,70.5C 133.5,64.6643 142.833,59.3309 152.5,54.5C 154.027,54.573 155.027,53.9063 155.5,52.5C 166.237,45.7751 177.237,39.4417 188.5,33.5C 190.027,33.573 191.027,32.9063 191.5,31.5C 198.329,27.2505 205.329,23.2505 212.5,19.5C 214.027,19.573 215.027,18.9063 215.5,17.5C 225.5,11.5 235.5,5.5 245.5,-0.5 Z"></path></g>
<g><path style="opacity:1" fill="#fdfefe" d="M 244.5,8.5 C 246.989,8.29777 249.323,8.79777 251.5,10C 319.748,49.0403 387.915,88.207 456,127.5C 456.667,208.833 456.667,290.167 456,371.5C 389.216,410.14 322.383,448.64 255.5,487C 252.826,488.588 249.992,489.755 247,490.5C 244.008,489.755 241.174,488.588 238.5,487C 172.146,448.735 105.646,410.568 39,372.5C 38.1667,290.498 38.3333,208.498 39.5,126.5C 108.059,87.3925 176.393,48.0591 244.5,8.5 Z"></path></g>
<g><path style="opacity:0.62" fill="#a8e3cd" d="M 215.5,17.5 C 215.027,18.9063 214.027,19.573 212.5,19.5C 212.973,18.0937 213.973,17.427 215.5,17.5 Z"></path></g>
<g><path style="opacity:0.831" fill="#a7e1c9" d="M 286.5,21.5 C 287.71,21.9321 288.71,22.5987 289.5,23.5C 287.821,23.7148 286.821,23.0481 286.5,21.5 Z"></path></g>
<g><path style="opacity:1" fill="#20b980" d="M 392.5,114.5 C 370.833,115.167 349.167,115.833 327.5,116.5C 324.293,117.026 321.793,118.692 320,121.5C 298.703,218.015 278.369,314.682 259,411.5C 260.271,412.883 261.771,413.883 263.5,414.5C 288.167,415.167 312.833,415.833 337.5,416.5C 307.474,433.934 277.308,451.267 247,468.5C 215.813,450.634 184.647,432.801 153.5,415C 171.5,414.667 189.5,414.333 207.5,414C 209.286,413.215 210.786,412.049 212,410.5C 242.936,314.257 274.102,218.09 305.5,122C 305.01,120.018 304.01,118.351 302.5,117C 286.5,116.333 270.5,116.333 254.5,117C 252.376,118.122 250.543,119.622 249,121.5C 230.059,191.487 211.226,261.487 192.5,331.5C 191.5,331.5 190.5,331.5 189.5,331.5C 197.486,274.764 205.986,218.098 215,161.5C 217.402,147.214 219.069,132.881 220,118.5C 219.5,118 219,117.5 218.5,117C 202.5,116.333 186.5,116.333 170.5,117C 168.376,118.122 166.543,119.622 165,121.5C 155.136,215.837 145.303,310.171 135.5,404.5C 110.082,389.707 84.5816,375.04 59,360.5C 58.1667,286.498 58.3334,212.498 59.5,138.5C 121.708,102.475 184.208,66.8081 247,31.5C 295.787,58.8061 344.287,86.4727 392.5,114.5 Z"></path></g>
<g><path style="opacity:0.671" fill="#a1e0c9" d="M 191.5,31.5 C 191.027,32.9063 190.027,33.573 188.5,33.5C 188.973,32.0937 189.973,31.427 191.5,31.5 Z"></path></g>
<g><path style="opacity:0.643" fill="#a8e3cb" d="M 155.5,52.5 C 155.027,53.9063 154.027,54.573 152.5,54.5C 152.973,53.0937 153.973,52.427 155.5,52.5 Z"></path></g>
<g><path style="opacity:0.643" fill="#a9e4cd" d="M 124.5,70.5 C 124.027,71.9063 123.027,72.573 121.5,72.5C 121.973,71.0937 122.973,70.427 124.5,70.5 Z"></path></g>
<g><path style="opacity:0.659" fill="#a5e2cb" d="M 100.5,84.5 C 100.027,85.9063 99.0269,86.573 97.5,86.5C 97.9731,85.0937 98.9731,84.427 100.5,84.5 Z"></path></g>
<g><path style="opacity:0.643" fill="#a8e3cd" d="M 69.5,102.5 C 69.0269,103.906 68.0269,104.573 66.5,104.5C 66.9731,103.094 67.9731,102.427 69.5,102.5 Z"></path></g>
<g><path style="opacity:0.847" fill="#a5e1c9" d="M 432.5,106.5 C 433.71,106.932 434.71,107.599 435.5,108.5C 433.821,108.715 432.821,108.048 432.5,106.5 Z"></path></g>
<g><path style="opacity:1" fill="#4dc79a" d="M 392.5,114.5 C 393.473,114.987 394.473,115.487 395.5,116C 372.836,116.5 350.169,116.667 327.5,116.5C 349.167,115.833 370.833,115.167 392.5,114.5 Z"></path></g>
<g><path style="opacity:0.663" fill="#a3e1c9" d="M 45.5,116.5 C 45.0269,117.906 44.0269,118.573 42.5,118.5C 42.9731,117.094 43.9731,116.427 45.5,116.5 Z"></path></g>
<g><path style="opacity:1" fill="#24ba82" d="M 367.5,162.5 C 373.167,162.5 378.833,162.5 384.5,162.5C 378.618,189.123 372.952,215.79 367.5,242.5C 361.833,242.5 356.167,242.5 350.5,242.5C 356.165,215.84 361.832,189.173 367.5,162.5 Z"></path></g>
<g><path style="opacity:0.724" fill="#91dec1" d="M 35.5,122.5 C 34.1774,164.69 33.5108,207.023 33.5,249.5C 33.6667,291.167 33.8333,332.833 34,374.5C 34.7172,375.044 35.2172,375.711 35.5,376.5C 33.9826,376.489 32.8159,375.823 32,374.5C 31.3333,291.167 31.3333,207.833 32,124.5C 32.8159,123.177 33.9826,122.511 35.5,122.5 Z"></path></g>
<g><path style="opacity:1" fill="#78d5b3" d="M 435.5,360.5 C 435.832,306.331 435.499,252.331 434.5,198.5C 434.995,196.518 435.495,194.518 436,192.5C 436.832,248.668 436.665,304.668 435.5,360.5 Z"></path></g>
<g><path style="opacity:1" fill="#23b981" d="M 434.5,198.5 C 435.499,252.331 435.832,306.331 435.5,360.5C 422.575,367.573 409.742,374.906 397,382.5C 396.833,381.5 396.667,380.5 396.5,379.5C 403.166,346.835 409.833,314.169 416.5,281.5C 416.415,275.83 414.082,271.33 409.5,268C 405.204,266.676 400.871,265.509 396.5,264.5C 406.564,264.051 414.73,260.051 421,252.5C 422.862,248.581 424.529,244.581 426,240.5C 428.835,226.496 431.668,212.496 434.5,198.5 Z"></path></g>
<g><path style="opacity:1" fill="#26ba82" d="M 340.5,368.5 C 334.729,369.113 329.396,368.446 324.5,366.5C 329.521,340.417 334.855,314.417 340.5,288.5C 346.167,288.5 351.833,288.5 357.5,288.5C 352.245,315.399 346.579,342.066 340.5,368.5 Z"></path></g>
<g><path style="opacity:1" fill="#b8e8d7" d="M 324.5,366.5 C 329.396,368.446 334.729,369.113 340.5,368.5C 335.025,369.489 329.358,369.822 323.5,369.5C 323.263,368.209 323.596,367.209 324.5,366.5 Z"></path></g>
<g><path style="opacity:0.412" fill="#a9e4cb" d="M 37.5,377.5 C 39.0269,377.427 40.0269,378.094 40.5,379.5C 38.9731,379.573 37.9731,378.906 37.5,377.5 Z"></path></g>
<g><path style="opacity:0.322" fill="#b8e8d6" d="M 42.5,380.5 C 44.0269,380.427 45.0269,381.094 45.5,382.5C 43.9731,382.573 42.9731,381.906 42.5,380.5 Z"></path></g>
<g><path style="opacity:0.243" fill="#c6eddd" d="M 47.5,383.5 C 49.0269,383.427 50.0269,384.094 50.5,385.5C 48.9731,385.573 47.9731,384.906 47.5,383.5 Z"></path></g>
<g><path style="opacity:0.361" fill="#b2e7d2" d="M 61.5,391.5 C 63.0269,391.427 64.0269,392.094 64.5,393.5C 62.9731,393.573 61.9731,392.906 61.5,391.5 Z"></path></g>
<g><path style="opacity:0.282" fill="#bfeada" d="M 66.5,394.5 C 68.0269,394.427 69.0269,395.094 69.5,396.5C 67.9731,396.573 66.9731,395.906 66.5,394.5 Z"></path></g>
<g><path style="opacity:0.357" fill="#b4e7d3" d="M 73.5,398.5 C 75.0269,398.427 76.0269,399.094 76.5,400.5C 74.9731,400.573 73.9731,399.906 73.5,398.5 Z"></path></g>
<g><path style="opacity:0.282" fill="#c0ebdb" d="M 78.5,401.5 C 80.0269,401.427 81.0269,402.094 81.5,403.5C 79.9731,403.573 78.9731,402.906 78.5,401.5 Z"></path></g>
<g><path style="opacity:0.349" fill="#b5e8d4" d="M 85.5,405.5 C 87.0269,405.427 88.0269,406.094 88.5,407.5C 86.9731,407.573 85.9731,406.906 85.5,405.5 Z"></path></g>
<g><path style="opacity:0.388" fill="#aae6d0" d="M 92.5,409.5 C 94.0269,409.427 95.0269,410.094 95.5,411.5C 93.9731,411.573 92.9731,410.906 92.5,409.5 Z"></path></g>
<g><path style="opacity:0.302" fill="#bbead9" d="M 97.5,412.5 C 99.0269,412.427 100.027,413.094 100.5,414.5C 98.9731,414.573 97.9731,413.906 97.5,412.5 Z"></path></g>
<g><path style="opacity:1" fill="#4cc79a" d="M 263.5,414.5 C 289.169,414.333 314.835,414.5 340.5,415C 339.473,415.513 338.473,416.013 337.5,416.5C 312.833,415.833 288.167,415.167 263.5,414.5 Z"></path></g>
<g><path style="opacity:0.224" fill="#c9ece0" d="M 102.5,415.5 C 104.027,415.427 105.027,416.094 105.5,417.5C 103.973,417.573 102.973,416.906 102.5,415.5 Z"></path></g>
<g><path style="opacity:0.345" fill="#b3e6d2" d="M 116.5,423.5 C 118.027,423.427 119.027,424.094 119.5,425.5C 117.973,425.573 116.973,424.906 116.5,423.5 Z"></path></g>
<g><path style="opacity:0.275" fill="#c0ebda" d="M 121.5,426.5 C 123.027,426.427 124.027,427.094 124.5,428.5C 122.973,428.573 121.973,427.906 121.5,426.5 Z"></path></g>
<g><path style="opacity:0.337" fill="#b7e8d4" d="M 128.5,430.5 C 130.027,430.427 131.027,431.094 131.5,432.5C 129.973,432.573 128.973,431.906 128.5,430.5 Z"></path></g>
<g><path style="opacity:0.38" fill="#ace6d1" d="M 147.5,441.5 C 149.027,441.427 150.027,442.094 150.5,443.5C 148.973,443.573 147.973,442.906 147.5,441.5 Z"></path></g>
<g><path style="opacity:0.302" fill="#bcead8" d="M 152.5,444.5 C 154.027,444.427 155.027,445.094 155.5,446.5C 153.973,446.573 152.973,445.906 152.5,444.5 Z"></path></g>
<g><path style="opacity:0.369" fill="#b2e6d2" d="M 159.5,448.5 C 161.027,448.427 162.027,449.094 162.5,450.5C 160.973,450.573 159.973,449.906 159.5,448.5 Z"></path></g>
<g><path style="opacity:0.318" fill="#b8e8d5" d="M 171.5,455.5 C 173.027,455.427 174.027,456.094 174.5,457.5C 172.973,457.573 171.973,456.906 171.5,455.5 Z"></path></g>
<g><path style="opacity:0.255" fill="#c2ebdc" d="M 176.5,458.5 C 178.027,458.427 179.027,459.094 179.5,460.5C 177.973,460.573 176.973,459.906 176.5,458.5 Z"></path></g>
<g><path style="opacity:0.533" fill="#ace6cd" d="M 183.5,462.5 C 185.027,462.427 186.027,463.094 186.5,464.5C 184.973,464.573 183.973,463.906 183.5,462.5 Z"></path></g>
<g><path style="opacity:0.416" fill="#b9e9d7" d="M 188.5,465.5 C 190.027,465.427 191.027,466.094 191.5,467.5C 189.973,467.573 188.973,466.906 188.5,465.5 Z"></path></g>
<g><path style="opacity:0.251" fill="#c4ecdd" d="M 193.5,468.5 C 195.027,468.427 196.027,469.094 196.5,470.5C 194.973,470.573 193.973,469.906 193.5,468.5 Z"></path></g>
<g><path style="opacity:0.322" fill="#b8e9d5" d="M 200.5,472.5 C 202.027,472.427 203.027,473.094 203.5,474.5C 201.973,474.573 200.973,473.906 200.5,472.5 Z"></path></g>
<g><path style="opacity:0.361" fill="#b2e7d2" d="M 207.5,476.5 C 209.027,476.427 210.027,477.094 210.5,478.5C 208.973,478.573 207.973,477.906 207.5,476.5 Z"></path></g>
<g><path style="opacity:0.282" fill="#beeada" d="M 212.5,479.5 C 214.027,479.427 215.027,480.094 215.5,481.5C 213.973,481.573 212.973,480.906 212.5,479.5 Z"></path></g>
<g><path style="opacity:0.349" fill="#b4e8d4" d="M 219.5,483.5 C 221.027,483.427 222.027,484.094 222.5,485.5C 220.973,485.573 219.973,484.906 219.5,483.5 Z"></path></g>
<g><path style="opacity:0.329" fill="#b7e8d5" d="M 231.5,490.5 C 233.027,490.427 234.027,491.094 234.5,492.5C 232.973,492.573 231.973,491.906 231.5,490.5 Z"></path></g>
<g><path style="opacity:0.38" fill="#abe6d1" d="M 238.5,494.5 C 240.027,494.427 241.027,495.094 241.5,496.5C 239.973,496.573 238.973,495.906 238.5,494.5 Z"></path></g>
<g><path style="opacity:0.278" fill="#b9e8d6" d="M 243.5,497.5 C 245.435,498.15 247.435,498.483 249.5,498.5C 249.5,498.833 249.5,499.167 249.5,499.5C 247.833,499.5 246.167,499.5 244.5,499.5C 244.167,498.833 243.833,498.167 243.5,497.5 Z"></path></g>
</svg><style>@media (prefers-color-scheme: light) { :root { filter: none; } }
</style></svg>